<!-- Generated by IcoMoon.io -->
<svg version="1.1" xmlns="http://www.w3.org/2000/svg" width="1024" height="1024" viewBox="0 0 1024 1024">
<title>amazon-pay-svgrepo-com</title>
<g id="icomoon-ignore">
</g>
<path fill="#fff" d="M87.771 168.229h848.457c44.435 0 80.457 36.022 80.457 80.457v526.629c0 44.435-36.022 80.457-80.457 80.457h-848.457c-44.435 0-80.457-36.022-80.457-80.457v-526.629c0-44.435 36.022-80.457 80.457-80.457z"></path>
<path fill="#000" d="M822.009 568.997c-2.491-0.135-4.453-2.219-4.485-4.766v-132.857c0.268-2.522 2.383-4.413 4.867-4.352h23.507c2.142 0.070 3.975 1.587 4.487 3.711v20.318h0.493c7.089-18.164 17.025-26.823 34.521-26.823 11.35 0 22.43 4.193 29.586 15.645 6.617 10.628 6.617 28.518 6.617 41.368v83.585c-0.37 2.439-2.452 4.222-4.867 4.171h-25.482c-2.285-0.101-4.174-1.856-4.487-4.171v-72.132c0-1.129 0.010-2.3 0.020-3.498 0.123-14.203 0.278-32.281-15.878-32.281-6.505 0.307-12.237 4.46-14.67 10.628-3.545 8.109-4.016 16.219-4.016 25.198v71.49c-0.097 2.696-2.292 4.816-4.934 4.766h-25.28zM798.234 499.316c0-41.918-20.345-74.904-57.96-74.904-36.652 0-56.996 32.436-56.996 73.507s20.097 74.056 56.996 74.056c35.53 0 57.96-32.138 57.96-72.659zM720.647 493.726c0-16.217 1.188-42.193 19.873-42.193 8.030 0 13.706 3.688 16.554 12.85 3.319 10.606 3.79 24.029 3.79 35.208 0 17.041-0.74 44.987-20.591 44.987-19.634 0-19.629-33.883-19.626-50.315v-0.537zM246.695 569.272c-2.349-0.126-4.257-1.987-4.487-4.377v-132.857c0.086-2.662 2.237-4.767 4.845-4.741h23.619c2.421 0.136 4.353 2.109 4.487 4.582v17.339h0.471c6.145-16.789 17.742-24.601 33.353-24.601s25.773 7.812 32.884 24.601c4.747-12.921 15.948-22.224 29.302-24.336 13.356-2.112 26.788 3.294 35.139 14.143 6.89 9.566 6.671 22.886 6.463 35.401v0.003c-0.035 2.109-0.070 4.197-0.070 6.239v83.814c-0.023 1.298-0.553 2.534-1.47 3.432s-2.147 1.387-3.419 1.358h-25.325c-2.491-0.135-4.453-2.219-4.485-4.766v-70.415c0-1.066 0.018-2.44 0.037-3.999 0.082-6.609 0.208-16.577-0.755-20.876-1.884-8.934-7.559-11.453-14.893-11.453-6.723 0.209-12.677 4.488-15.141 10.881-2.417 6.252-2.395 16.317-2.38 23.774l0.003 1.674v70.391c-0.025 1.295-0.55 2.525-1.463 3.423s-2.139 1.388-3.406 1.366h-25.391c-2.487-0.146-4.443-2.224-4.487-4.766v-70.415c0-1.442 0.022-2.951 0.044-4.498v-0.003c0.202-14.362 0.452-32.148-15.745-32.148-17.521 0-17.506 20.242-17.496 35.547v71.493c-0.023 1.298-0.553 2.534-1.47 3.432s-2.149 1.387-3.419 1.358h-25.347zM202.619 570.279l0.202 0.045c5.047-4.604 14.244-12.758 19.425-17.18 1.973-1.717 1.615-4.58 0-6.871-0.493-0.693-0.99-1.372-1.483-2.048-4.153-5.686-8.095-11.084-8.095-21.936v-40.291c0-1.302 0.007-2.595 0.013-3.879 0.076-15.559 0.148-29.797-11.227-40.673-9.69-9.529-25.796-12.873-38.132-12.873-24.112 0-51.029 9.185-56.659 39.605-0.233 1.23 0.038 2.506 0.75 3.527 0.712 1.023 1.803 1.701 3.019 1.878l24.359 2.727c2.379-0.369 4.219-2.323 4.486-4.765 2.108-10.468 10.721-15.531 20.389-15.531 5.249 0 11.125 1.947 14.22 6.712 3.177 4.784 3.128 11.132 3.084 16.835-0.006 0.66-0.010 1.311-0.010 1.949v3.344c-2.304 0.266-4.718 0.518-7.205 0.777v0 0c-13.375 1.394-28.844 3.008-40.438 8.202-15.701 7.010-26.916 21.28-26.916 42.285 0 26.892 16.598 40.338 37.93 40.338 18.011 0 27.858-4.33 41.787-18.806 0.671 0.999 1.279 1.921 1.849 2.793 3.324 5.061 5.487 8.357 12.664 14.456 1.924 1.106 4.321 0.859 5.989-0.619zM177.070 507.195l0.001 1.255c0.009 9.528 0.016 17.607-4.734 26.232-4.037 7.285-10.43 11.775-17.563 11.775-9.713 0-15.388-7.559-15.388-18.783 0-22.036 19.358-26.045 37.683-26.045v5.566zM552.865 544.13c0.494 0.676 0.99 1.358 1.485 2.051 1.704 2.383 2.063 5.177-0.113 6.757-5.181 4.421-14.377 12.598-19.424 17.18-1.679 1.457-4.068 1.695-5.989 0.595-7.209-6.124-9.343-9.371-12.714-14.5l-0.001-0.001-0.007-0.012c-0.56-0.853-1.156-1.757-1.812-2.736-13.907 14.478-23.821 18.806-41.766 18.806-21.331 0-37.929-13.445-37.929-40.315 0-21.027 11.147-35.299 27.028-42.307 11.619-5.215 27.175-6.821 40.588-8.205h0.007c2.431-0.252 4.792-0.494 7.047-0.752v-3.275c0-0.635 0.004-1.283 0.010-1.938 0.044-5.704 0.094-12.055-3.106-16.821-3.006-4.765-8.995-6.735-14.22-6.735-9.668 0-18.236 5.063-20.367 15.531-0.275 2.439-2.111 4.389-4.487 4.765l-24.56-2.703c-1.224-0.171-2.326-0.851-3.043-1.878-0.718-1.028-0.989-2.313-0.749-3.55 5.652-30.442 32.569-39.605 56.681-39.605 12.314 0 28.42 3.344 38.132 12.873 11.399 10.821 11.318 24.948 11.23 40.428v0.013c-0.007 1.36-0.015 2.733-0.015 4.112v40.315c0 10.83 3.941 16.225 8.093 21.909zM487.013 546.319c7.111 0 13.526-4.49 17.541-11.751 4.766-8.673 4.762-16.791 4.756-26.438v-6.615c-18.327 0-37.683 3.985-37.683 26.043 0 11.201 5.674 18.761 15.386 18.761zM575.792 431.581v18.921c-0.013 1.298 0.494 2.545 1.406 3.449s2.146 1.388 3.416 1.339h43.605l-49.998 73.299c-2.282 3.932-3.36 8.471-3.095 13.034v19.355c0 2.796 3.028 5.979 5.922 4.399 27.576-14.602 60.368-14.662 87.995-0.161 3.163 1.672 6.145-1.558 6.145-4.352v-20.341c-0.085-3.11-1.798-5.935-4.487-7.399-14.557-8.36-31.492-10.811-47.508-10.421l43.157-62.901c4.014-5.635 6.258-9.207 6.258-11.934v-16.286c0.012-1.293-0.493-2.537-1.4-3.441s-2.134-1.39-3.401-1.346h-83.283c-1.268-0.073-2.506 0.407-3.408 1.318-0.903 0.913-1.384 2.174-1.324 3.468z"></path>
<path fill="#f90" d="M617.443 653.748c5.765-14.637 18.594-47.439 12.494-55.388h0.044c-6.074-7.965-40.169-3.784-55.505-1.905l-0.032 0.004c-4.665 0.572-5.383-3.574-1.189-6.574 27.231-19.539 71.845-13.95 77.027-7.354s-1.413 52.272-26.917 74.079c-3.925 3.344-7.671 1.558-5.922-2.863zM434.208 676.333c59.307 0 128.37-19.125 175.944-54.974v0.069c7.873-6.047 1.122-14.934-6.908-11.453-51.93 22.369-107.674 34.045-164.033 34.358-78.193 0-153.828-21.898-215.018-58.25-5.36-3.185-9.354 2.428-4.867 6.527 58.909 54.278 135.541 84.136 214.882 83.722z"></path>
</svg>
