<!-- Generated by IcoMoon.io -->
<svg version="1.1" xmlns="http://www.w3.org/2000/svg" width="1024" height="1024" viewBox="0 0 1024 1024">
<title>up</title>
<g id="icomoon-ignore">
</g>
<path d="M999.331 317.463c-21.876-11.457-44.684-21.004-68.422-29.121v574.301c-53.062-19.575-107.52-29.598-162.909-29.598-88.436 0-175.942 25.779-256 75.427v-577.641c-75.404-44.397-162.444-70.654-256-70.654-83.316 0-161.978 21.006-231.331 57.286-15.36 7.638-24.669 24.348-24.669 42.012v576.684c0 27.69 21.876 47.262 46.545 47.262 7.447 0 14.895-1.908 22.342-5.727 56.32-30.075 119.622-49.173 187.113-49.173 96.349 0 185.251 39.147 256 95.479 70.749-56.332 159.651-95.479 256-95.479 67.491 0 130.793 19.098 187.113 49.65 7.447 3.819 14.895 5.727 22.342 5.727 24.204 0 46.545-19.572 46.545-47.26v-577.164c0-17.664-9.309-34.374-24.669-42.012zM418.909 862.643c-53.062-19.575-107.52-29.598-162.909-29.598s-109.847 10.024-162.909 29.598v-473.093c51.665-22.437 106.124-33.894 162.909-33.894 55.855 0 111.244 11.934 162.909 34.371v472.616zM837.818 93.091l-232.727 238.694v453.52l232.727-214.826v-477.389z"></path>
</svg>
