<!-- Generated by IcoMoon.io -->
<svg version="1.1" xmlns="http://www.w3.org/2000/svg" width="1024" height="1024" viewBox="0 0 1024 1024">
<title>amazon-pay-svgrepo-com</title>
<g id="icomoon-ignore">
</g>
<path fill="#fb8c00" d="M279.104 896h465.792c83.456 0 151.104-67.648 151.104-151.104v-465.792c0-83.456-67.648-151.104-151.104-151.104h-465.792c-83.456 0-151.104 67.648-151.104 151.104v465.792c0 83.456 67.648 151.104 151.104 151.104z"></path>
<path fill="#fff" d="M490.667 725.333c-50.069-92.907-170.667-106.667-256-21.333v-341.333c85.333-85.333 192-64 256 0v362.667z"></path>
<path fill="#fff" d="M533.333 725.333c50.069-92.907 170.667-106.667 256-21.333v-341.333c-85.333-85.333-192-64-256 0v362.667z"></path>
</svg>
