<svg aria-hidden="true" style="position:absolute;width:0;height:0;overflow:hidden" xmlns="http://www.w3.org/2000/svg">
  <defs>
    <symbol id="icon-align-left" viewBox="0 0 32 32">
      <path stroke-linejoin="round" stroke-linecap="round" stroke-width="2.286" d="M22.667 13.333H4M28 8H4m24 10.667H4M22.667 24H4"/>
    </symbol>
    <symbol id="icon-amazon-pay" viewBox="0 0 32 32">
      <path fill="#fff" style="fill:var(--color1, #fff)" d="M2.743 5.257h26.514a2.514 2.514 0 0 1 2.514 2.514v16.457a2.514 2.514 0 0 1-2.514 2.514H2.743a2.514 2.514 0 0 1-2.514-2.514V7.771a2.514 2.514 0 0 1 2.514-2.514z"/>
      <path style="fill:var(--color2, #000)" d="M25.688 17.781a.15.15 0 0 1-.14-.149V13.48a.15.15 0 0 1 .152-.136h.735a.15.15 0 0 1 .14.116v.635h.015c.222-.568.532-.838 1.079-.838.355 0 .701.131.925.489.207.332.207.891.207 1.293v2.612a.152.152 0 0 1-.152.13h-.796a.15.15 0 0 1-.14-.13v-2.254l.001-.109c.004-.444.009-1.009-.496-1.009a.52.52 0 0 0-.458.332c-.111.253-.125.507-.125.787v2.234a.153.153 0 0 1-.154.149h-.79zm-.743-2.177c0-1.31-.636-2.341-1.811-2.341-1.145 0-1.781 1.014-1.781 2.297s.628 2.314 1.781 2.314c1.11 0 1.811-1.004 1.811-2.271zm-2.425-.175c0-.507.037-1.319.621-1.319.251 0 .428.115.517.402.104.331.118.751.118 1.1 0 .533-.023 1.406-.643 1.406-.614 0-.613-1.059-.613-1.572v-.017zM7.709 17.79a.15.15 0 0 1-.14-.137v-4.152a.152.152 0 0 1 .151-.148h.738a.15.15 0 0 1 .14.143v.542h.015c.192-.525.554-.769 1.042-.769s.805.244 1.028.769c.148-.404.498-.694.916-.761s.837.103 1.098.442c.215.299.208.715.202 1.106l-.002.195v2.619c-.001.041-.017.079-.046.107s-.067.043-.107.042h-.791a.15.15 0 0 1-.14-.149v-2.2l.001-.125c.003-.207.007-.518-.024-.652-.059-.279-.236-.358-.465-.358a.527.527 0 0 0-.473.34c-.076.195-.075.51-.074.743V17.639a.152.152 0 0 1-.152.15h-.793a.15.15 0 0 1-.14-.149v-2.2l.001-.141c.006-.449.014-1.005-.492-1.005-.548 0-.547.633-.547 1.111v2.234c-.001.041-.017.079-.046.107s-.067.043-.107.042H7.71zm-1.377.031.006.001c.158-.144.445-.399.607-.537.062-.054.05-.143 0-.215l-.046-.064c-.13-.178-.253-.346-.253-.686v-1.38c.002-.486.005-.931-.351-1.271-.303-.298-.806-.402-1.192-.402-.753 0-1.595.287-1.771 1.238-.007.038.001.078.023.11s.056.053.094.059l.761.085a.169.169 0 0 0 .14-.149c.066-.327.335-.485.637-.485.164 0 .348.061.444.21.099.149.098.348.096.526V15.026l-.225.024c-.418.044-.901.094-1.264.256-.491.219-.841.665-.841 1.321 0 .84.519 1.261 1.185 1.261.563 0 .871-.135 1.306-.588l.058.087c.104.158.171.261.396.452a.16.16 0 0 0 .187-.019zm-.799-1.971v.039c0 .298 0 .55-.148.82-.126.228-.326.368-.549.368-.304 0-.481-.236-.481-.587 0-.689.605-.814 1.178-.814v.174zm11.744 1.154.046.064c.053.074.064.162-.004.211-.162.138-.449.394-.607.537a.162.162 0 0 1-.187.019 1.718 1.718 0 0 1-.397-.453 2.112 2.112 0 0 0-.057-.085c-.435.452-.744.588-1.305.588-.667 0-1.185-.42-1.185-1.26 0-.657.348-1.103.845-1.322.363-.163.849-.213 1.268-.256.076-.008.15-.015.22-.024V14.86c.001-.178.003-.377-.097-.526-.094-.149-.281-.21-.444-.21-.302 0-.57.158-.636.485a.17.17 0 0 1-.14.149l-.768-.084c-.038-.005-.073-.027-.095-.059s-.031-.072-.023-.111c.177-.951 1.018-1.238 1.771-1.238.385 0 .888.104 1.192.402.356.338.354.78.351 1.263v1.389c0 .338.123.507.253.685zm-2.058.068c.222 0 .423-.14.548-.367.149-.271.149-.525.149-.826v-.207c-.573 0-1.178.125-1.178.814 0 .35.177.586.481.586zm2.775-3.585v.591a.148.148 0 0 0 .151.15h1.363l-1.562 2.291a.733.733 0 0 0-.097.407v.605c0 .087.095.187.185.137a2.944 2.944 0 0 1 2.75-.005c.099.052.192-.049.192-.136v-.636a.272.272 0 0 0-.14-.231c-.455-.261-.984-.338-1.485-.326l1.349-1.966c.125-.176.196-.288.196-.373v-.509c0-.04-.015-.079-.044-.108s-.067-.043-.106-.042h-2.603a.14.14 0 0 0-.148.149z"/>
      <path fill="#f90" style="fill:var(--color3, #f90)" d="M19.295 20.43c.18-.457.581-1.482.39-1.731h.001c-.19-.249-1.255-.118-1.735-.06h-.001c-.146.018-.168-.112-.037-.205.851-.611 2.245-.436 2.407-.23s-.044 1.634-.841 2.315c-.123.105-.24.049-.185-.089zm-5.726.705c1.853 0 4.012-.598 5.498-1.718v.002c.246-.189.035-.467-.216-.358a13.144 13.144 0 0 1-5.126 1.074c-2.444 0-4.807-.684-6.719-1.82-.168-.1-.292.076-.152.204a9.833 9.833 0 0 0 6.715 2.616z"/>
    </symbol>
    <symbol id="icon-arrow-right" viewBox="0 0 32 32">
      <path stroke-linejoin="round" stroke-linecap="round" stroke-width="3.2" d="M5.333 16h21.333m.001 0-8-8m8 8-8 8"/>
    </symbol>
    <symbol id="icon-basket" viewBox="0 0 32 32">
      <path fill="none" stroke="#fff" style="stroke:var(--color1, #fff)" stroke-linejoin="round" stroke-linecap="round" stroke-width="3.2" d="M11.6 2.8h8.8M2.8 7.2h26.4m-2.933 0-1.029 15.429c-.155 2.314-.232 3.472-.731 4.349a4.433 4.433 0 0 1-1.878 1.771l-.026.012c-.91.44-2.069.44-4.389.44h-4.429c-2.32 0-3.478 0-4.389-.44A4.437 4.437 0 0 1 7.503 27l-.011-.021c-.499-.877-.576-2.035-.731-4.349L5.732 7.201m7.335 6.599v7.333m5.866-7.333v7.333"/>
    </symbol>
    <symbol id="icon-bookStub" viewBox="0 0 32 32">
      <path d="M31.229 9.921a15.221 15.221 0 0 0-2.138-.91v17.947A14.622 14.622 0 0 0 24 26.033c-2.764 0-5.498.806-8 2.357V10.339c-2.356-1.387-5.076-2.208-8-2.208-2.604 0-5.062.656-7.229 1.79-.48.239-.771.761-.771 1.313v18.021c0 .865.684 1.477 1.455 1.477.233 0 .465-.06.698-.179 1.76-.94 3.738-1.537 5.847-1.537 3.011 0 5.789 1.223 8 2.984 2.211-1.76 4.989-2.984 8-2.984 2.109 0 4.087.597 5.847 1.552.233.119.465.179.698.179.756 0 1.455-.612 1.455-1.477V11.234c0-.552-.291-1.074-.771-1.313zM13.091 26.958c-1.658-.612-3.36-.925-5.091-.925s-3.433.313-5.091.925V12.174a12.672 12.672 0 0 1 10.182.015v14.769zM26.182 2.909l-7.273 7.459V24.54l7.273-6.713V2.909z"/>
    </symbol>
    <symbol id="icon-ibooks" viewBox="0 0 32 32">
      <path fill="#fb8c00" style="fill:var(--color4, #fb8c00)" d="M8.722 28h14.556A4.722 4.722 0 0 0 28 23.278V8.722A4.722 4.722 0 0 0 23.278 4H8.722A4.722 4.722 0 0 0 4 8.722v14.556A4.722 4.722 0 0 0 8.722 28z"/>
      <path fill="#fff" style="fill:var(--color1, #fff)" d="M15.333 22.667c-1.565-2.903-5.333-3.333-8-.667V11.333c2.667-2.667 6-2 8 0v11.333zM16.667 22.667c1.565-2.903 5.333-3.333 8-.667V11.333c-2.667-2.667-6-2-8 0v11.333z"/>
    </symbol>
    <symbol id="icon-lock-02" viewBox="0 0 32 32">
      <path stroke-linejoin="round" stroke-linecap="round" stroke-width="2.286" d="M22.666 14.666v-4a6.666 6.666 0 0 0-13.332 0v4M10.4 28h11.2c2.24 0 3.36 0 4.216-.435a4.03 4.03 0 0 0 1.738-1.726l.011-.022c.435-.856.435-1.976.435-4.216v-.534c0-2.24 0-3.36-.435-4.216a4.03 4.03 0 0 0-1.726-1.738l-.022-.011c-.856-.434-1.976-.434-4.216-.434h-11.2c-2.24 0-3.36 0-4.216.434a4.03 4.03 0 0 0-1.738 1.726l-.011.022c-.435.857-.435 1.977-.435 4.217v.533c0 2.24 0 3.36.435 4.216a4.03 4.03 0 0 0 1.726 1.738l.022.011C7.04 28 8.16 28 10.4 28z"/>
    </symbol>
    <symbol id="icon-logoOur" viewBox="0 0 125 32">
      <path fill="#f6f6f6" style="fill:var(--color5, #f6f6f6)" d="m0 2.286 14.008 13.861 13.42 13.567V2.285H-.001z"/>
      <path fill="#f6f6f6" style="fill:var(--color5, #f6f6f6)" d="m3.82 5.91 10.237 10.139 9.649 9.845H3.82V5.91z"/>
      <path fill="#4f2ee8" style="fill:var(--color6, #4f2ee8)" d="M23.771 25.959 13.534 15.82 3.885 5.975h19.886v19.984z"/>
      <path fill="#4f2ee8" style="fill:var(--color6, #4f2ee8)" d="m7.935 10.024 11.657 11.657H7.935V10.024z"/>
      <path fill="#f6f6f6" style="fill:var(--color5, #f6f6f6)" d="m7.935 10.024 11.657 11.657V10.024H7.935z"/>
      <path style="fill:var(--color2, #000)" d="M47.659 12.266c0-2.366-1.749-3.703-4.773-3.703h-6.315v14.709h6.665c3.045 0 4.999-1.461 4.999-4.299 0-2.201-1.317-3.333-2.859-3.6v-.041c1.214-.411 2.283-1.255 2.283-3.065zm-8.64 2.387v-4.011h3.929c1.461 0 2.263.72 2.263 2.016s-.658 1.995-2.407 1.995h-3.785zm0 1.83h4.299c1.543 0 2.469.843 2.469 2.345 0 1.378-.638 2.366-2.736 2.366h-4.032v-4.711zm15.497 7.098c-3.291 0-5.287-2.283-5.287-5.554s1.995-5.554 5.287-5.554c3.291 0 5.287 2.283 5.287 5.554s-1.995 5.554-5.287 5.554zm0-1.77c2.057 0 3.127-1.625 3.127-3.785 0-2.181-1.07-3.785-3.127-3.785s-3.127 1.605-3.127 3.785c0 2.16 1.07 3.785 3.127 3.785zm11.511 1.77c-3.291 0-5.287-2.283-5.287-5.554s1.995-5.554 5.287-5.554c3.291 0 5.287 2.283 5.287 5.554s-1.995 5.554-5.287 5.554zm0-1.77c2.057 0 3.127-1.625 3.127-3.785 0-2.181-1.07-3.785-3.127-3.785S62.9 15.846 62.9 18.026c0 2.16 1.07 3.785 3.127 3.785zm6.78-13.248v14.709h2.16v-3.806l1.461-1.378 3.312 5.184h2.592l-4.423-6.603L81.9 12.76h-2.654l-4.279 4.217V8.563h-2.16zm14.732 8.352c-1.522-.35-2.695-.432-2.695-1.502 0-.741.699-1.234 1.995-1.234 1.687 0 2.098.843 2.242 1.666h2.098c-.144-1.831-1.502-3.374-4.361-3.374-2.633 0-4.155 1.378-4.155 3.106 0 2.386 2.263 2.715 3.929 3.106 1.543.37 2.798.473 2.798 1.79 0 .658-.638 1.399-2.139 1.399-2.222 0-2.715-.967-2.818-2.098h-2.098c.103 2.222 1.563 3.806 4.958 3.806 2.551 0 4.279-1.255 4.279-3.271 0-2.51-2.098-2.942-4.032-3.394zm11.094-4.443c-1.769 0-2.859.823-3.415 1.646h-.041V8.564h-2.16v14.709h2.16v-6.398c0-1.563 1.131-2.571 2.715-2.571 1.502 0 2.098.905 2.098 2.325v6.645h2.181v-7.262c0-2.407-1.543-3.538-3.538-3.538zm10.163 9.339c-1.913 0-3.045-1.461-3.045-3.23h8.064c0-3.744-1.666-6.11-5.061-6.11-3.168 0-5.163 2.139-5.163 5.554 0 3.291 1.995 5.554 5.266 5.554 2.695 0 4.258-1.522 4.793-3.518h-2.16c-.185.638-.905 1.749-2.695 1.749zm-.042-7.632c1.749 0 2.901 1.173 2.901 2.798h-5.904c0-1.625 1.255-2.798 3.003-2.798zm6.583-5.616v14.709h2.181V8.563h-2.181zm9.236 1.77V8.564a7.6 7.6 0 0 0-1.44-.144c-1.728 0-2.674.782-2.674 3.003v1.337h-1.502v1.769h1.502v8.743h2.181v-8.743h1.934V12.76h-1.934v-1.152c0-1.193.535-1.337 1.934-1.275z"/>
    </symbol>
    <symbol id="icon-scrollUp" viewBox="0 0 55 32">
      <path fill="#fff" style="fill:var(--color1, #fff)" d="M1.091 25.309 25.527.8c.291-.291.605-.495.945-.617S27.176 0 27.563 0s.751.061 1.091.183c.371.139.687.349.945.616L29.6.8l24.509 24.509c.678.678 1.018 1.527 1.018 2.545s-.364 1.891-1.091 2.618a3.486 3.486 0 0 1-2.535 1.091h-.011.001-.01a3.482 3.482 0 0 1-2.534-1.089l-.001-.002L27.564 9.09 6.182 30.472c-.678.678-1.513 1.018-2.508 1.018s-1.856-.364-2.583-1.091A3.486 3.486 0 0 1 0 27.864v-.011.001-.01c0-.998.418-1.897 1.089-2.534l.002-.001z"/>
    </symbol>
    <symbol id="icon-slider" viewBox="0 0 32 32">
      <path fill="#fff" style="fill:var(--color1, #fff)" d="M16 32C7.163 32 0 24.837 0 16S7.163 0 16 0s16 7.163 16 16-7.163 16-16 16z"/>
      <path fill="#4f2ee8" style="fill:var(--color6, #4f2ee8)" d="M15.452 17.081a.77.77 0 0 0 1.096 0l3.536-3.544a.77.77 0 0 1 1.096 0 .768.768 0 0 1 0 1.088l-3.543 3.543c-.419.419-.998.677-1.637.677s-1.218-.259-1.637-.677l-3.543-3.543a.77.77 0 0 1 .547-1.316.77.77 0 0 1 .548.228l3.536 3.543z"/>
    </symbol>
    <symbol id="icon-trident-min" viewBox="0 0 20 32">
      <path fill="#fff" style="fill:var(--color1, #fff)" d="M9.005 30.888A8.656 8.656 0 0 1 5.6 25.592l-.009-.055H0V2.42c2.991 1.443 5.153 4.6 5.388 7.876l.845 6.493-.407-.045c-.893 0-1.676.812-1.676 1.608 0 .752.595 1.383 1.379 1.548l1.018.226c1.675-3.051 2.63-6.042 2.63-8.973 0-2.646-.36-5.291-.422-7.997 0-1.202.485-2.3 1.253-3.156.783.857 1.253 1.954 1.253 3.156 0 2.706-.423 5.351-.423 7.997 0 2.93.955 5.922 2.631 8.973l1.018-.226c.783-.165 1.378-.811 1.378-1.548 0-.811-.783-1.608-1.675-1.608l-.423.06.845-6.493C15.035 7.034 17.01 3.863 20 2.435v23.117h-5.576c-.422 2.18-1.613 4.148-3.414 5.35-.423.286-.783.632-1.018 1.098-.22-.466-.58-.812-.987-1.112zM2.647 17.556c.235-.857.893-1.609 1.738-2.075l-.658-5.35a8.283 8.283 0 0 0-2.043-4.382l.007.008V17.54h.956v.015zm2.819 6.373c0-.812.125-1.548.298-2.3l-.784-.18c-1.143-.346-2.036-1.203-2.333-2.3H1.69v4.78h3.775zm3.712 0c0-.977-.783-1.834-1.801-1.954-.173.63-.298 1.262-.298 1.954h2.099zm0 1.623H7.314c.298 1.262.955 2.42 1.864 3.397v-3.397zm2.63-5.005c-.72-1.263-1.377-2.585-1.8-3.968-.423 1.383-1.08 2.705-1.801 3.968.72.165 1.315.631 1.8 1.157.486-.526 1.082-.992 1.802-1.157zm1.144 3.382c0-.692-.125-1.323-.297-1.954-1.018.12-1.801.977-1.801 1.954h2.098zm-.235 1.623h-1.863v3.397c.908-.992 1.566-2.135 1.863-3.397zm5.623-1.623v-4.78h-.956c-.297 1.097-1.206 1.954-2.333 2.3l-.783.18c.172.752.297 1.488.297 2.3h3.775zm0-6.373v-11.8c-1.08 1.203-1.864 2.706-2.036 4.375l-.658 5.35c.846.466 1.504 1.203 1.738 2.075h.956z"/>
    </symbol>
    <symbol id="icon-user" viewBox="0 0 32 32">
      <path d="M5.333 29.333a10.666 10.666 0 1 1 21.332-.001H5.332zm10.667-12c-4.42 0-8-3.58-8-8s3.58-8 8-8 8 3.58 8 8-3.58 8-8 8z"/>
    </symbol>
    <symbol id="icon-x-close-min" viewBox="0 0 32 32">
      <path stroke-linejoin="round" stroke-linecap="round" stroke-width="3.429" d="M24 8 8 24M8 8l16 16"/>
    </symbol>
  </defs>
</svg>
