<svg xmlns="http://www.w3.org/2000/svg" width="3986" height="1024"><path fill="#f6f6f6" d="m0 73.143 448.26 443.56 429.455 434.154V73.143H.001z"/><path fill="#f6f6f6" d="m122.25 189.127 327.575 324.442 308.769 315.037H122.25V189.127z"/><path fill="#4f2ee8" d="m760.675 830.672-327.578-324.44L124.33 191.194h636.344v639.478z"/><path fill="#4f2ee8" d="m253.911 320.783 373.03 373.028h-373.03V320.783z"/><path fill="#f6f6f6" d="m253.911 320.783 373.03 373.028V320.783h-373.03z"/><path d="M1525.102 392.521c0-75.703-55.954-118.491-152.722-118.491h-202.094v470.674h213.285c97.426 0 159.963-46.738 159.963-137.582 0-70.437-42.13-106.642-91.502-115.2v-1.317c38.839-13.166 73.07-40.155 73.07-98.085zm-276.48 76.361V340.517h125.733c46.738 0 72.411 23.04 72.411 64.512s-21.065 63.854-77.019 63.854h-121.125zm0 58.588h137.582c49.371 0 78.994 26.99 78.994 75.045 0 44.105-20.407 75.703-87.552 75.703h-129.024V527.471zM1744.523 754.578c-105.326 0-169.179-73.07-169.179-177.737s63.854-177.737 169.179-177.737c105.326 0 169.179 73.07 169.179 177.737s-63.854 177.737-169.179 177.737zm0-56.612c65.829 0 100.059-52.005 100.059-121.125 0-69.778-34.231-121.125-100.059-121.125s-100.059 51.346-100.059 121.125c0 69.12 34.231 121.125 100.059 121.125zM2112.878 754.578c-105.326 0-169.179-73.07-169.179-177.737s63.854-177.737 169.179-177.737c105.326 0 169.179 73.07 169.179 177.737s-63.854 177.737-169.179 177.737zm0-56.612c65.829 0 100.059-52.005 100.059-121.125 0-69.778-34.231-121.125-100.059-121.125s-100.059 51.346-100.059 121.125c0 69.12 34.231 121.125 100.059 121.125zM2329.83 274.03v470.674h69.12V622.921l46.738-44.105 105.984 165.888h82.944l-141.531-211.31 127.707-125.074h-84.919L2398.95 543.269V274.031h-69.12zM2801.24 541.294c-48.713-11.191-86.235-13.824-86.235-48.055 0-23.698 22.382-39.497 63.854-39.497 53.979 0 67.145 26.99 71.753 53.321h67.145c-4.608-58.587-48.055-107.959-139.557-107.959-84.261 0-132.974 44.105-132.974 99.401 0 76.361 72.411 86.894 125.733 99.401 49.371 11.849 89.527 15.141 89.527 57.271 0 21.065-20.407 44.763-68.462 44.763-71.095 0-86.894-30.939-90.185-67.145h-67.145c3.291 71.095 50.03 121.783 158.647 121.783 81.627 0 136.923-40.155 136.923-104.667 0-80.311-67.145-94.135-129.024-108.617zM3156.257 399.104c-56.613 0-91.502 26.331-109.275 52.663h-1.317V274.03h-69.12v470.674h69.12V539.977c0-50.03 36.206-82.286 86.894-82.286 48.055 0 67.145 28.965 67.145 74.386v212.626h69.778V512.328c0-77.019-49.371-113.225-113.225-113.225zM3481.461 697.966c-61.221 0-97.426-46.738-97.426-103.351h258.048c0-119.808-53.321-195.511-161.938-195.511-101.376 0-165.23 68.462-165.23 177.737 0 105.326 63.854 177.737 168.521 177.737 86.235 0 136.265-48.713 153.381-112.567h-69.12c-5.925 20.407-28.965 55.954-86.235 55.954zm-1.317-244.224c55.954 0 92.818 37.522 92.818 89.527h-188.928c0-52.005 40.155-89.527 96.11-89.527zM3690.789 274.03v470.674h69.778V274.03h-69.778zM3986.322 330.643V274.03c-13.824-2.634-28.965-4.608-46.08-4.608-55.296 0-85.577 25.015-85.577 96.11v42.788h-48.055v56.613h48.055v279.771h69.778V464.933h61.879V408.32h-61.879v-36.864c0-38.18 17.115-42.788 61.879-40.813z"/></svg>